# xmcd
# Track frame offsets:
# 150
# 13922
# 28015
# 41027
# 56767
# 78140
# 96425
# 110702
# 123965
# 139587
# 156830
# 176442
# 191850
# 208317
# 219860
# 231750
# 242882
# 254652
# 270080
# 282627
# 294662
# 316117
#
# Disc length: 4349 seconds
# Revision: 0
# Processed by: cddbd v1.4PL0 Copyright (c) Steve Scherf et al.
# Submitted via: VisiTrax 2.9.5.181 - For more info visit www.synapsa.com
#
DISCID=4b10fb16
DTITLE=Various Artist - Jukebox cowboy
DYEAR=1997
DGENRE=
TTITLE0=Mike Henderson - One Foot In The Honky Tonk
TTITLE1=LeRoy Preston - Fool On A Stool
TTITLE2=Dan Penn - Tearjoint
TTITLE3=Phil Burdett - Careless Coin
TTITLE4=Don McCalister Jr. - Ain't It Funny
TTITLE5=Mary Cutrufello - Sworn To Pride
TTITLE6=James Intveld - Cryin' Over You
TTITLE7=Roy Heinrich - Listen To your Heart
TTITLE8=Cowboys and Indians - Western Life
TTITLE9=The Cornell Hurd Band - 7 Cups Of Coffee 14 Cigarettes
TTITLE10=Roxy Gordon - Indians
TTITLE11=Stan Ridgway - Luther Played Guitar
TTITLE12=Kevin Coyne - Take Me Back In Your Arms
TTITLE13=Erik Moll - Let Me Mend Your Broken Heart
TTITLE14=Kathy Robertson and Chris Gaffney - I'll Never Be Free
TTITLE15=The Haoles - Hillbilly Hula Gal
TTITLE16=Liberty Ranch - Two Long Years
TTITLE17=Debra Peters and Wayne Hancock - 5 Dollars And A Heartache
TTITLE18=Cowboy Nation - Cowboy Nation
TTITLE19=Malcolm Holcombe - 300 Miles
TTITLE20=Townes Van Zandt and Barb Donovan - I'll Be There In The Morning
TTITLE21=Duffy Power - Till We Meet Again
EXTD=Vinyl Junkie Ltd
EXTT0=
EXTT1=
EXTT2=
EXTT3=
EXTT4=
EXTT5=
EXTT6=
EXTT7=
EXTT8=
EXTT9=
EXTT10=
EXTT11=
EXTT12=
EXTT13=
EXTT14=
EXTT15=
EXTT16=
EXTT17=
EXTT18=
EXTT19=
EXTT20=
EXTT21=23. The Good The Bad And The Ugly - Simon Chardiet
PLAYORDER=
